<svg width="500" height="500" viewBox="0 0 500 500" fill="none" xmlns="http://www.w3.org/2000/svg">
<rect width="500" height="500" fill="#EF233C"/>
<path d="M38 185V313.5H97H106L114.5 312L119 311L125 309L131 306L134.5 303.5L137.5 301L140 298L141.5 295.5L143.5 292.5L145 289.5L142.5 286L140 282L137.5 277L135.5 271L134 265.5L133 261L132.5 257V252.5V248.5L131 247.5L129 246.5L125 245.5L129 243.5L131.5 242L133 241L133.5 237.5L134 234.5L134.5 231.5L135.5 228L136.5 224.5L137.5 222L138.5 219.5L140 217L141.5 214L140 209.5L138.5 206L135.5 201.5L132 197.5L128 194.5L123.5 191.5L119 189.5L114.5 188L109.5 186.5L105 185.5L101.5 185H99H38Z" fill="white"/>
<path d="M76 215V237H91.5L94 236.5L96.5 235.5L99.5 234.5L101.5 233L103.5 230.5L104.5 228V226.5V224L103.5 221.5L101.5 219L99.5 217.5L96.5 216L93.5 215H90.5H76Z" fill="#EF233C"/>
<path d="M76.5 260V282.5H100L103.5 281.5L106 280L109 276L110 273.5V270.5L109 268.5L107 265.5L104.5 263L101 261.5L98 260.5L95.5 260H76.5Z" fill="#EF233C"/>
<path d="M199.5 209.5C197.1 212.7 196.167 214.5 196 215L190 217.5L186 219.5L182.5 222.5L178.5 227L175 232.5L172 238.5L171 244L170.5 247.5V251L171.5 257.5L174 265L177.5 271L182.5 276.5L188 280.5L192.5 282.5L198.5 284.5H203.5H209H211.5L217 282.5L222.5 279.5L227 276L232 271L235 266L237 262L238 257.5L238.5 253.5L239 249L238.5 245L238 241.5L237 238L236 235L237 234L239 231L241 229L244.5 226L247.5 224.5L251.5 222.5L255 221.5H257.5H260.5L263.5 222L266 229L268.5 236L269 240.5V244.5V250V256L268.5 260.5L267.5 265L266 270.5L262.5 278.5L258.5 285.5L254.5 290.5L250.5 295L245.5 299L238.5 303.5L232.5 306.5L224 310L219 311L213 312L207 312.5H202L197 312L193 311.5L186.5 310L182 308.5L176.5 306.5L171.5 304.5L166.5 301L161 297L157.5 293.5L154 290L151.5 286L149 282L146.5 277.5L144 272.5L142.5 267.5L141 261L140.5 256L140 251V247L140.5 242L141 237L142.5 231L144 226.5L146.5 221L149 217L152 212.5L157 206.5L164 200L172 195L179 191.5L187.5 189L198.5 187L208 186.5L215 187L221.5 189L215 193.5L209 198C206.833 200.5 201.9 206.3 199.5 209.5Z" fill="white"/>
<path d="M312.5 297.5L309.5 300L308.5 314H346.5L351 254L373.5 314H396L419 254L424 314H461.5L450 185H413.5L385 256.5L356 185H320L318 208.5L321.5 214L324.5 219.5L327 225.5L329 231.5L330.5 240.5L331.5 248V254.5L330.5 262L329 269L327 275L324 282L320 288.5L315.5 294L312.5 297.5Z" fill="white"/>
<path d="M198.5 272L201 277L206.5 277.5L209.5 277L213.5 276L218.5 274L222 271L225.5 267L228 263.5L225.5 255L225 249.5L225.5 245L226.5 239.5L228.5 233.5L232 227.5L235.5 223.5L241.5 219L247 216.5L254.5 214.5L260 214L265.5 214.5L272.5 216.5L280 221.5L286 227.5L290.5 234.5L292 239.5L293 246.5V252.5L292 258.5L290.5 264L288 268.5L284 274L280 277.5L274.5 281.5L268 284L265 289L262 293L258 297.5L253.5 302L249 305.5L242.5 310L248.5 311.5L251 312H257H263.5L271 311.5L278.5 309.5L285.5 307L293 303.5L302.5 297L309.5 290L313.5 284L318 276L321.5 268L323.5 262.5L324.5 257V250V245L323.5 239.5L322 233.5L319.5 225.5L315 216.5L308.5 208L301 200.5L292 194.5L283 190.5L275 188L268 187L263 186.5H256.5L252 187L244.5 188L234 191L224.5 196L215.5 202.5L208.5 209.5L203.5 216.5L200 223.5L198 228.5L196.5 233.5L195.5 239L195 244V247V254.5L195.5 261L197 267.5L198.5 272Z" fill="white"/>
</svg>
