<?xml version="1.0" standalone="no"?>
<!DOCTYPE svg PUBLIC "-//W3C//DTD SVG 20010904//EN"
 "http://www.w3.org/TR/2001/REC-SVG-20010904/DTD/svg10.dtd">
<svg version="1.0" xmlns="http://www.w3.org/2000/svg"
 width="512.000000pt" height="512.000000pt" viewBox="0 0 512.000000 512.000000"
 preserveAspectRatio="xMidYMid meet">

<g transform="translate(0.000000,512.000000) scale(0.100000,-0.100000)"
fill="#000000" stroke="none">
<path d="M2330 5110 c-494 -48 -950 -230 -1350 -538 -195 -150 -448 -432 -594
-662 -63 -99 -186 -351 -230 -471 -49 -134 -102 -340 -128 -499 -31 -195 -31
-565 0 -760 45 -276 116 -498 237 -745 132 -269 269 -460 489 -681 221 -220
412 -357 681 -489 247 -121 469 -192 745 -237 195 -31 565 -31 760 0 276 45
498 116 745 237 269 132 460 269 681 489 220 221 357 412 489 681 121 247 194
477 234 739 27 172 37 388 22 444 -37 134 -210 196 -324 116 -73 -51 -88 -93
-98 -262 -13 -241 -42 -394 -110 -595 -159 -470 -484 -874 -919 -1142 -522
-322 -1191 -395 -1783 -194 -470 159 -874 484 -1142 919 -322 522 -395 1191
-194 1783 235 695 839 1240 1549 1397 212 47 496 63 705 40 465 -52 895 -254
1242 -582 77 -73 138 -102 203 -96 113 11 195 101 195 213 -1 77 -15 103 -112
197 -370 362 -859 600 -1403 683 -122 18 -467 27 -590 15z"/>
<path d="M1832 3393 c-44 -21 -85 -63 -106 -106 -21 -45 -21 -129 1 -175 9
-22 124 -145 272 -294 l255 -258 -255 -257 c-158 -160 -262 -273 -273 -297
-26 -56 -19 -149 16 -199 41 -61 93 -91 164 -95 44 -3 72 1 100 14 24 11 137
115 297 273 l257 255 258 -255 c159 -158 272 -262 296 -273 28 -13 56 -17 100
-14 71 4 123 34 164 95 35 50 42 143 16 199 -11 24 -115 137 -273 297 l-255
257 255 258 c158 159 262 272 273 296 26 56 19 149 -16 199 -41 61 -93 91
-164 95 -44 3 -72 -1 -100 -14 -24 -11 -137 -115 -296 -273 l-258 -255 -257
255 c-150 148 -273 263 -295 272 -46 22 -133 21 -176 0z"/>
</g>
</svg>
