<?xml version="1.0" standalone="no"?>
<!DOCTYPE svg PUBLIC "-//W3C//DTD SVG 20010904//EN"
 "http://www.w3.org/TR/2001/REC-SVG-20010904/DTD/svg10.dtd">
<svg version="1.0" xmlns="http://www.w3.org/2000/svg"
 width="512.000000pt" height="512.000000pt" viewBox="0 0 512.000000 512.000000"
 preserveAspectRatio="xMidYMid meet">

<g transform="translate(0.000000,512.000000) scale(0.100000,-0.100000)"
fill="#000000" stroke="none">
<path d="M2380 4794 c-19 -2 -71 -9 -115 -15 -886 -118 -1625 -760 -1861
-1616 -61 -225 -78 -349 -78 -598 -1 -248 12 -351 70 -573 96 -371 283 -704
549 -980 350 -364 776 -585 1290 -669 152 -25 495 -24 650 1 481 77 890 279
1228 605 360 348 586 788 664 1291 24 159 24 481 0 640 -78 503 -304 943 -664
1291 -335 323 -727 519 -1198 600 -115 19 -444 34 -535 23z m355 -324 c463
-44 895 -251 1211 -582 349 -365 534 -827 534 -1330 0 -658 -324 -1250 -885
-1618 -218 -143 -510 -248 -788 -285 -810 -106 -1606 323 -1966 1060 -363 741
-215 1619 369 2204 398 397 968 603 1525 551z"/>
<path d="M3180 3389 c-14 -5 -159 -143 -322 -307 l-298 -297 -297 297 c-322
320 -321 320 -410 303 -49 -9 -109 -69 -118 -118 -17 -89 -17 -88 303 -410
l297 -297 -195 -198 c-383 -387 -408 -414 -415 -456 -22 -115 84 -215 198
-186 37 10 77 47 339 313 l297 302 303 -302 c263 -261 309 -303 346 -313 60
-16 111 1 155 49 39 44 53 91 43 149 -6 32 -45 75 -314 340 l-307 302 297 293
c163 160 302 302 308 315 19 39 14 118 -10 157 -38 62 -130 91 -200 64z"/>
</g>
</svg>
