<?xml version="1.0" encoding="UTF-8"?>
<!DOCTYPE svg PUBLIC "-//W3C//DTD SVG 1.1//EN" "http://www.w3.org/Graphics/SVG/1.1/DTD/svg11.dtd">
<svg xmlns="http://www.w3.org/2000/svg" version="1.1" width="64px" height="64px" style="shape-rendering:geometricPrecision; text-rendering:geometricPrecision; image-rendering:optimizeQuality; fill-rule:evenodd; clip-rule:evenodd" xmlns:xlink="http://www.w3.org/1999/xlink">
<g><path style="opacity:0.777" fill="#000000" d="M 24.5,7.5 C 39.367,5.01154 49.5337,10.6782 55,24.5C 57.9816,39.3761 52.4816,49.5428 38.5,55C 23.6239,57.9816 13.4572,52.4816 8,38.5C 5.14645,23.5328 10.6465,13.1994 24.5,7.5 Z M 25.5,12.5 C 43.6483,11.1477 51.815,19.481 50,37.5C 43.1778,51.0423 33.0111,54.209 19.5,47C 11.6019,38.7455 10.4352,29.5788 16,19.5C 18.7901,16.535 21.9567,14.2016 25.5,12.5 Z"/></g>
<g><path style="opacity:0.793" fill="#000000" d="M 24.5,21.5 C 26.8138,23.4773 29.1472,25.4773 31.5,27.5C 33.8169,25.684 35.9835,23.684 38,21.5C 39.1667,22.6667 40.3333,23.8333 41.5,25C 39.316,27.0165 37.316,29.1831 35.5,31.5C 37.316,33.8169 39.316,35.9835 41.5,38C 40.3333,39.1667 39.1667,40.3333 38,41.5C 35.9835,39.316 33.8169,37.316 31.5,35.5C 29.1831,37.316 27.0165,39.316 25,41.5C 23.8333,40.3333 22.6667,39.1667 21.5,38C 23.684,35.9835 25.684,33.8169 27.5,31.5C 25.684,29.1831 23.684,27.0165 21.5,25C 22.7101,23.9609 23.7101,22.7942 24.5,21.5 Z"/></g>
</svg>
