<?xml version="1.0" encoding="utf-8"?>
<!-- Svg Vector Icons : http://www.onlinewebfonts.com/icon -->
<!DOCTYPE svg PUBLIC "-//W3C//DTD SVG 1.1//EN" "http://www.w3.org/Graphics/SVG/1.1/DTD/svg11.dtd">
<svg version="1.1" xmlns="http://www.w3.org/2000/svg" xmlns:xlink="http://www.w3.org/1999/xlink" x="0px" y="0px" viewBox="0 0 1000 1000" enable-background="new 0 0 1000 1000" xml:space="preserve">
<metadata> Svg Vector Icons : http://www.onlinewebfonts.com/icon </metadata>
<g><path d="M500,990C229.8,990,10,770.2,10,500C10,229.8,229.8,10,500,10c270.2,0,490,219.8,490,490C990,770.2,770.2,990,500,990L500,990z M814.6,824.3c-43-31.2-106.4-55.4-181.5-68.7c-22.4-4-38.5-23.8-37.5-46.2c0.6-14.1,0.6-29.1,0.5-44.8c0-21.8,10.8-42.8,22.3-65.1c11.3-21.9,23-44.6,24.1-67.7l0.2-3.8l1.7-3.5c13.4-27.9,21.1-55.5,21.1-75.7c0-9.2-1.7-15.5-4.9-18.8l-7-7l1.8-9.7c1.9-10.3,3.7-21,5.5-31.9c1.5-9.2,3.1-18.6,4.8-28.1c13.7-76.2-11.6-126.3-75.3-148.9c-5.3-1.9-16-4.6-28.4-7.7c-39.4-10-95.3-24.2-133.5-47.7c0,0.5-0.1,1.1-0.1,1.6c-1.4,28-2.6,50.1-19.5,57.7c-65.4,29.4-87.8,72.8-74.8,145c1.7,9.5,3.3,18.9,4.8,28.1c1.8,10.9,3.6,21.5,5.5,31.9l1.8,9.7l-7,7c-3.3,3.3-4.9,9.6-4.9,18.8c0,20.2,7.7,47.9,21.1,75.7l1.7,3.5l0.2,3.8c1.1,22.7,12.5,44.5,23.5,65.6c11.8,22.6,22.9,43.9,22.9,67.2c-0.1,15.7-0.1,30.7,0.5,44.8c1,22.4-15.2,42.2-37.5,46.2c-75.1,13.3-138.5,37.4-181.5,68.7c81.5,79.1,192.4,128,314.6,128C622.2,952.3,733.1,903.4,814.6,824.3L814.6,824.3z M500,47.7C250.6,47.7,47.7,250.6,47.7,500c0,113.6,42.4,217.2,111.8,296.8c47.9-36,118.1-63.6,200.8-78.3c4-0.7,6.6-3.8,6.4-7.5c-0.6-14.7-0.6-30.3-0.6-46.5c0-14-9.1-31.3-18.7-49.7c-11.8-22.6-25.1-48-27.4-77.3c-15-32.1-23.3-63.5-23.3-88.7c0-15.1,3-27.3,9.2-37c-1.4-7.9-2.8-16-4.1-24.2c-1.5-9.1-3.1-18.3-4.7-27.7c-15.9-88.2,13.2-146.7,91.3-183.7c1.4-6.5,2-19.4,2.4-27.6c1.3-26,2.2-43.1,17.7-49.2c8.1-3.2,17.1-1.1,24,5.6c27.8,27,100.1,45.3,138.9,55.2c13.8,3.5,24.8,6.3,31.7,8.8c81.4,28.9,116.8,96.8,99.8,191.1c-1.7,9.4-3.2,18.6-4.8,27.7c-1.4,8.2-2.7,16.3-4.1,24.2c6.2,9.7,9.2,21.9,9.2,37c0,25.2-8.3,56.6-23.3,88.7c-2.4,29.7-16,56-28,79.3c-9.3,18.1-18.1,35.2-18.1,47.8c0.1,16.2,0.1,31.7-0.6,46.4c-0.2,3.7,2.5,6.8,6.4,7.5c82.7,14.7,153,42.3,200.8,78.3c69.4-79.5,111.8-183.2,111.8-296.8C952.3,250.6,749.4,47.7,500,47.7L500,47.7z"/></g>
</svg>