<?xml version="1.0" standalone="no"?>
<!DOCTYPE svg PUBLIC "-//W3C//DTD SVG 20010904//EN"
 "http://www.w3.org/TR/2001/REC-SVG-20010904/DTD/svg10.dtd">
<svg version="1.0" xmlns="http://www.w3.org/2000/svg"
 width="512.000000pt" height="512.000000pt" viewBox="0 0 512.000000 512.000000"
 preserveAspectRatio="xMidYMid meet">

<g transform="translate(0.000000,512.000000) scale(0.100000,-0.100000)"
fill="#000000" stroke="none">
<path d="M2095 4634 c-16 -2 -66 -9 -110 -15 -233 -31 -511 -138 -717 -276
-935 -626 -1057 -1940 -253 -2727 237 -232 552 -401 873 -465 502 -102 1024
18 1426 327 l58 45 522 -521 c516 -515 521 -521 569 -527 105 -16 198 77 182
182 -6 48 -12 53 -527 569 l-521 522 45 58 c261 340 393 784 358 1200 -20 239
-68 417 -166 624 -60 124 -112 212 -183 305 -276 364 -662 600 -1116 680 -86
16 -377 28 -440 19z m410 -339 c509 -91 938 -464 1104 -960 53 -158 73 -286
73 -460 1 -396 -140 -734 -421 -1016 -221 -221 -473 -352 -776 -404 -128 -22
-347 -23 -477 -1 -525 87 -963 461 -1132 966 -54 161 -70 269 -70 460 0 183
15 279 66 440 170 531 642 919 1204 990 96 12 322 4 429 -15z"/>
</g>
</svg>
