<?xml version="1.0" standalone="no"?>
<!DOCTYPE svg PUBLIC "-//W3C//DTD SVG 20010904//EN"
 "http://www.w3.org/TR/2001/REC-SVG-20010904/DTD/svg10.dtd">
<svg version="1.0" xmlns="http://www.w3.org/2000/svg"
 width="512.000000pt" height="512.000000pt" viewBox="0 0 512.000000 512.000000"
 preserveAspectRatio="xMidYMid meet">

<g transform="translate(0.000000,512.000000) scale(0.100000,-0.100000)"
fill="#000000" stroke="none">
<path d="M2370 5114 c-19 -2 -78 -9 -130 -15 -791 -90 -1522 -586 -1924 -1305
-146 -262 -252 -588 -297 -914 -18 -125 -18 -515 0 -640 105 -762 511 -1409
1146 -1826 776 -510 1793 -550 2615 -104 126 69 154 91 180 145 64 132 -42
294 -185 283 -28 -3 -64 -11 -80 -20 -17 -8 -73 -38 -125 -66 -367 -196 -801
-282 -1216 -241 -854 84 -1578 664 -1843 1475 -148 452 -148 896 0 1348 214
653 723 1162 1378 1376 449 147 894 147 1345 -1 488 -160 893 -481 1171 -929
162 -262 273 -595 305 -919 45 -460 -70 -940 -326 -1351 -56 -90 -59 -98 -59
-160 0 -78 26 -127 88 -168 56 -37 153 -39 210 -3 60 37 182 235 276 449 469
1060 169 2297 -734 3025 -364 293 -768 469 -1245 542 -100 15 -472 28 -550 19z"/>
<path d="M1592 2759 c-47 -14 -109 -79 -123 -131 -23 -89 12 -182 88 -229 l38
-24 965 0 965 0 38 24 c21 13 50 42 65 64 23 34 27 52 27 107 0 55 -4 73 -27
107 -15 22 -44 51 -65 64 l-38 24 -950 2 c-582 1 -963 -2 -983 -8z"/>
</g>
</svg>
