<?xml version="1.0" standalone="no"?>
<!DOCTYPE svg PUBLIC "-//W3C//DTD SVG 20010904//EN"
 "http://www.w3.org/TR/2001/REC-SVG-20010904/DTD/svg10.dtd">
<svg version="1.0" xmlns="http://www.w3.org/2000/svg"
 width="512.000000pt" height="512.000000pt" viewBox="0 0 512.000000 512.000000"
 preserveAspectRatio="xMidYMid meet">

<g transform="translate(0.000000,512.000000) scale(0.100000,-0.100000)"
fill="#000000" stroke="none">
<path d="M2420 5113 c-596 -64 -1089 -519 -1196 -1104 l-16 -88 -337 -3 -338
-3 -40 -27 c-22 -15 -51 -44 -64 -65 l-24 -38 0 -1825 0 -1825 24 -38 c13 -21
42 -50 64 -65 l41 -27 2026 0 2026 0 41 27 c22 15 51 44 64 65 l24 38 0 1825
0 1825 -24 38 c-13 21 -42 50 -64 65 l-40 27 -338 3 -337 3 -16 89 c-30 163
-101 341 -194 485 -274 427 -782 672 -1282 618z m371 -422 c182 -47 320 -128
454 -265 126 -129 210 -280 249 -445 l14 -61 -948 0 -948 0 14 61 c39 165 123
316 249 445 151 154 310 240 518 280 100 19 299 12 398 -15z m-1589 -1504 l3
-334 27 -40 c41 -62 90 -88 168 -88 78 0 127 26 168 88 l27 40 3 334 3 333
959 0 959 0 3 -333 3 -334 27 -40 c41 -62 90 -88 168 -88 78 0 127 26 168 88
l27 40 3 334 3 333 200 0 199 0 0 -1560 0 -1560 -1760 0 -1760 0 0 1560 0
1560 199 0 200 0 3 -333z"/>
</g>
</svg>
